<svg width="75" height="50" viewBox="0 0 75 50" fill="none" xmlns="http://www.w3.org/2000/svg">
<path d="M75 0H0V50H75V0Z" fill="white"/>
<path d="M15.9513 25.559C17.2975 25.559 18.3888 24.5516 18.3888 23.309C18.3888 22.0663 17.2975 21.059 15.9513 21.059C14.6051 21.059 13.5138 22.0663 13.5138 23.309C13.5138 24.5516 14.6051 25.559 15.9513 25.559Z" fill="#4B6EE8"/>
<path d="M27.5768 25.559C28.923 25.559 30.0143 24.5516 30.0143 23.309C30.0143 22.0663 28.923 21.059 27.5768 21.059C26.2306 21.059 25.1393 22.0663 25.1393 23.309C25.1393 24.5516 26.2306 25.559 27.5768 25.559Z" fill="#4B6EE8"/>
<path d="M17.5061 30.6559C18.2655 31.9409 19.8006 33.0879 21.7657 33.0879C23.7309 33.0879 25.2649 31.9419 26.0243 30.6559C26.2291 30.3099 25.9582 29.9369 25.656 30.1519C23.1502 31.9529 20.3683 31.9409 17.8723 30.1519C17.5711 29.9379 17.3003 30.3109 17.5061 30.6559Z" fill="#4B6EE8"/>
<path d="M61.6757 33.949C64.2107 32.178 66.3362 29.765 66.8746 26.941C68.388 26.725 70 25.833 70 23.018C70 20.539 69.0098 19.797 68.1724 19.613C68.0847 9.444 65.3958 5.108 53.3362 5.003C41.1768 4.896 37.9734 9.419 37.8575 19.74C37.73 19.7995 37.6101 19.872 37.5 19.956V19.67C37.5 7.274 28.7012 7.506 28.7012 7.506C28.7012 7.506 28.0392 5 21.2511 5C10.7395 5 5 11.33 5 19.67V45H70V37.775C70 35.869 66.438 34.595 61.6757 33.949ZM9.21742 19.711C15.7391 19.711 26.3644 11.881 26.3644 11.881C26.3644 11.881 30.3803 18.793 34.2565 19.711C34.2565 19.711 36.1361 20.029 36.1361 22.774C36.1361 26.073 33.6303 26.643 33.6303 26.643C33.5989 31.622 26.2355 36.627 21.7678 36.627C17.2948 36.627 9.80892 31.621 9.80892 26.643C9.80892 26.643 7.39417 26.073 7.39417 22.774C7.39417 20.16 9.21742 19.711 9.21742 19.711ZM36.9583 44.021L6.08225 44V37.775C6.08225 36.761 8.887 35.468 14.2192 34.837C16.6989 36.54 19.5589 37.626 21.7678 37.626C23.9042 37.626 26.6645 36.584 29.0901 34.94C33.8947 35.602 36.9594 37.54 36.9594 38.5V44.021H36.9583ZM37.4675 23.018C37.4675 21.386 37.8976 20.558 38.7491 20.558C38.8054 20.558 38.8618 20.561 38.9192 20.567C39.0318 21.165 39.164 21.596 39.3211 21.881C39.7089 22.578 40.4467 22.959 40.5301 23L41.4379 23.451L41.2928 22.486C41.1791 21.5784 41.1418 20.664 41.1812 19.751C41.5408 14.725 41.8864 14.055 43.0694 14.055C43.6068 14.055 44.3445 14.194 45.2794 14.368C47.1005 14.709 49.5933 15.176 53.2062 15.176C56.8191 15.176 59.3129 14.709 61.1329 14.368C62.0678 14.193 62.8056 14.055 63.344 14.055C64.5281 14.055 64.8737 14.727 65.229 19.75C65.2918 21.327 65.1217 22.475 65.1196 22.486L64.9733 23.453L65.8844 23C65.9678 22.959 66.7034 22.578 67.0923 21.881C67.2516 21.594 67.3827 21.172 67.4975 20.567C68.4498 20.471 68.9492 21.28 68.9492 23.018C68.9492 24.924 68.1323 25.868 66.3795 25.989L65.9505 26.018L65.8953 26.422C65.0838 32.361 56.5797 36.127 53.2062 36.127C49.8327 36.127 41.3285 32.361 40.5192 26.422L40.464 26.018L40.035 25.989C38.2843 25.867 37.4675 24.924 37.4675 23.018ZM37.5 26.026C38.0807 26.572 38.8206 26.838 39.5421 26.941C40.0935 29.837 42.3122 32.301 44.9317 34.084C40.6276 34.764 37.5 35.99 37.5 37.775V26.026ZM68.9156 44L38.0417 44.001V38.501C38.0417 36.782 41.4802 35.52 46.2317 34.904C48.7082 36.319 51.3515 37.127 53.2073 37.127C55.1085 37.127 57.8342 36.275 60.3616 34.796C65.6526 35.375 68.9156 36.604 68.9156 37.775V44Z" fill="#4B6EE8"/>
<path d="M47.2598 25.559C48.606 25.559 49.6973 24.5516 49.6973 23.309C49.6973 22.0663 48.606 21.059 47.2598 21.059C45.9136 21.059 44.8223 22.0663 44.8223 23.309C44.8223 24.5516 45.9136 25.559 47.2598 25.559Z" fill="#4B6EE8"/>
<path d="M59.1742 25.559C60.5204 25.559 61.6117 24.5516 61.6117 23.309C61.6117 22.0663 60.5204 21.059 59.1742 21.059C57.828 21.059 56.7367 22.0663 56.7367 23.309C56.7367 24.5516 57.828 25.559 59.1742 25.559Z" fill="#4B6EE8"/>
<path d="M48.9541 30.6559C49.7135 31.9409 51.2497 33.0879 53.216 33.0879C55.1822 33.0879 56.7173 31.9419 57.4779 30.6559C57.6826 30.3099 57.4096 29.9369 57.1095 30.1519C54.6027 31.9529 51.8174 31.9409 49.3213 30.1519C49.0202 29.9379 48.7493 30.3109 48.9541 30.6559Z" fill="#4B6EE8"/>
</svg>
