<svg width="246" height="46" viewBox="0 0 246 46" fill="none" xmlns="http://www.w3.org/2000/svg">
<path d="M20.0986 34.9934L19.7405 35.5683L20.0986 34.9934ZM16.6111 31.7377L15.9857 32.0562L15.9904 32.0641L15.9953 32.0719L16.6111 31.7377ZM13.8929 6.8891L13.3892 7.3593L13.3936 7.36342L13.3981 7.36748L13.8929 6.8891ZM7.02053 6.8891L6.51686 6.41889L6.5123 6.42315L6.50781 6.42754L7.02053 6.8891ZM5.6358 35.6158V36.2808H6.34811V35.6158H5.6358ZM0.712311 35.6158H0V36.2808H0.712311V35.6158ZM1.94318 6.07517L1.31785 5.75672L1.94318 6.07517ZM5.37937 2.7716L5.73738 3.34647L5.74272 3.34361L5.74792 3.34061L5.37937 2.7716ZM15.5854 2.7716L15.2168 3.34061L15.222 3.34361L15.2273 3.34647L15.5854 2.7716ZM19.0215 6.07517L19.6469 5.75672L19.0215 6.07517ZM21.6884 30.828L21.1848 31.2982L21.1893 31.3025L21.194 31.3067L21.6884 30.828ZM28.4069 30.828L28.9106 31.2982L28.9152 31.294L28.9197 31.2896L28.4069 30.828ZM31.0225 6.07517L30.4032 5.74668L30.4002 5.75166L30.3972 5.75672L31.0225 6.07517ZM34.51 2.7716L34.868 3.34647L34.8734 3.34361L34.8786 3.34061L34.51 2.7716ZM44.716 2.7716L44.3475 3.34061L44.3527 3.34361L44.358 3.34647L44.716 2.7716ZM48.1522 6.07517L48.7775 5.75672L48.1522 6.07517ZM49.3831 35.6158V36.2808H50.0954V35.6158H49.3831ZM44.4596 35.6158H43.7473V36.2808H44.4596V35.6158ZM43.0236 6.8891L42.5108 7.35065L42.5153 7.35504L42.5199 7.3593L43.0236 6.8891ZM33.433 31.7377L32.8137 31.4092L32.811 31.4136L33.433 31.7377ZM29.9968 34.9934L29.6388 34.4185L29.6325 34.422L29.9968 34.9934ZM25.0733 35.5254C23.3417 35.5254 21.8088 35.1525 20.4566 34.4185L19.7405 35.5683C21.3287 36.4303 23.1123 36.8553 25.0733 36.8553V35.5254ZM20.4566 34.4185C19.0932 33.6786 18.0195 32.6763 17.2269 31.4035L15.9953 32.0719C16.9122 33.5442 18.1635 34.7123 19.7405 35.5683L20.4566 34.4185ZM17.2364 31.4193C16.4813 30.127 16.0925 28.6118 16.0925 26.8542H14.6679C14.6679 28.7991 15.0997 30.5396 15.9857 32.0562L17.2364 31.4193ZM16.0925 26.8542V10.1927H14.6679V26.8542H16.0925ZM16.0925 10.1927C16.0925 8.70706 15.5209 7.43211 14.3877 6.41072L13.3981 7.36748C14.248 8.13352 14.6679 9.06096 14.6679 10.1927H16.0925ZM14.3966 6.41889C13.308 5.40262 11.9823 4.88354 10.4567 4.88354V6.21349C11.5981 6.21349 12.5632 6.58813 13.3892 7.3593L14.3966 6.41889ZM10.4567 4.88354C8.93116 4.88354 7.60548 5.40262 6.51686 6.41889L7.52421 7.3593C8.35027 6.58813 9.31538 6.21349 10.4567 6.21349V4.88354ZM6.50781 6.42754C5.44918 7.45239 4.92349 8.72209 4.92349 10.1927H6.34811C6.34811 9.04586 6.74558 8.11324 7.53325 7.35065L6.50781 6.42754ZM4.92349 10.1927V35.6158H6.34811V10.1927H4.92349ZM5.6358 34.9509H0.712311V36.2808H5.6358V34.9509ZM1.42462 35.6158V10.8151H0V35.6158H1.42462ZM1.42462 10.8151C1.42462 9.15977 1.81041 7.69105 2.56852 6.39356L1.31785 5.75672C0.434794 7.26813 0 8.95935 0 10.8151H1.42462ZM2.56852 6.39356C3.32727 5.095 4.38064 4.08285 5.73738 3.34647L5.02136 2.19673C3.43768 3.05627 2.20026 4.2465 1.31785 5.75672L2.56852 6.39356ZM5.74792 3.34061C7.09454 2.58049 8.65671 2.19174 10.4567 2.19174V0.861803C8.42735 0.861803 6.60461 1.30294 5.01082 2.20258L5.74792 3.34061ZM10.4567 2.19174C12.2936 2.19174 13.8721 2.58162 15.2168 3.34061L15.9539 2.20258C14.3582 1.30181 12.5176 0.861803 10.4567 0.861803V2.19174ZM15.2273 3.34647C16.5841 4.08285 17.6374 5.095 18.3962 6.39356L19.6469 5.75672C18.7645 4.2465 17.527 3.05627 15.9434 2.19673L15.2273 3.34647ZM18.3962 6.39356C19.1543 7.69105 19.5401 9.15977 19.5401 10.8151H20.9647C20.9647 8.95935 20.5299 7.26813 19.6469 5.75672L18.3962 6.39356ZM19.5401 10.8151V27.4766H20.9647V10.8151H19.5401ZM19.5401 27.4766C19.5401 28.9817 20.0851 30.2717 21.1848 31.2982L22.1921 30.3578C21.3771 29.597 20.9647 28.6527 20.9647 27.4766H19.5401ZM21.194 31.3067C22.2806 32.2849 23.5848 32.7857 25.0733 32.7857V31.4558C23.9633 31.4558 23.011 31.0948 22.1828 30.3494L21.194 31.3067ZM25.0733 32.7857C26.5626 32.7857 27.8546 32.2841 28.9106 31.2982L27.9033 30.3578C27.113 31.0956 26.1826 31.4558 25.0733 31.4558V32.7857ZM28.9197 31.2896C29.9816 30.2615 30.504 28.9742 30.504 27.4766H29.0794C29.0794 28.6601 28.6785 29.6072 27.8942 30.3665L28.9197 31.2896ZM30.504 27.4766V10.8151H29.0794V27.4766H30.504ZM30.504 10.8151C30.504 9.15977 30.8898 7.69105 31.6479 6.39356L30.3972 5.75672C29.5142 7.26813 29.0794 8.95935 29.0794 10.8151H30.504ZM31.6419 6.40367C32.4356 5.09966 33.5087 4.08425 34.868 3.34647L34.152 2.19673C32.5709 3.05488 31.3191 4.24185 30.4032 5.74668L31.6419 6.40367ZM34.8786 3.34061C36.2233 2.58162 37.8019 2.19174 39.6387 2.19174V0.861803C37.5777 0.861803 35.7372 1.30181 34.1415 2.20258L34.8786 3.34061ZM39.6387 2.19174C41.4387 2.19174 43.0008 2.58049 44.3475 3.34061L45.0846 2.20258C43.4908 1.30294 41.668 0.861803 39.6387 0.861803V2.19174ZM44.358 3.34647C45.7147 4.08285 46.7681 5.095 47.5269 6.39356L48.7775 5.75672C47.8951 4.2465 46.6577 3.05627 45.074 2.19673L44.358 3.34647ZM47.5269 6.39356C48.285 7.69105 48.6708 9.15977 48.6708 10.8151H50.0954C50.0954 8.95935 49.6606 7.26813 48.7775 5.75672L47.5269 6.39356ZM48.6708 10.8151V35.6158H50.0954V10.8151H48.6708ZM49.3831 34.9509H44.4596V36.2808H49.3831V34.9509ZM45.1719 35.6158V10.1927H43.7473V35.6158H45.1719ZM45.1719 10.1927C45.1719 8.71464 44.6233 7.44215 43.5272 6.41889L42.5199 7.3593C43.3385 8.12348 43.7473 9.05338 43.7473 10.1927H45.1719ZM43.5363 6.42754C42.4785 5.40342 41.1649 4.88354 39.6387 4.88354V6.21349C40.7793 6.21349 41.7223 6.58733 42.5108 7.35065L43.5363 6.42754ZM39.6387 4.88354C38.0843 4.88354 36.74 5.39903 35.6475 6.41889L36.6549 7.3593C37.4771 6.59172 38.4578 6.21349 39.6387 6.21349V4.88354ZM35.6475 6.41889C34.5514 7.44215 34.0029 8.71464 34.0029 10.1927H35.4275C35.4275 9.05338 35.8363 8.12348 36.6549 7.3593L35.6475 6.41889ZM34.0029 10.1927V26.8542H35.4275V10.1927H34.0029ZM34.0029 26.8542C34.0029 28.6074 33.599 30.1188 32.8137 31.4092L34.0524 32.0662C34.9765 30.5478 35.4275 28.8035 35.4275 26.8542H34.0029ZM32.811 31.4136C32.0534 32.6808 30.9997 33.6799 29.6388 34.4185L30.3548 35.5683C31.9344 34.711 33.1714 33.5396 34.055 32.0618L32.811 31.4136ZM29.6325 34.422C28.318 35.1525 26.8052 35.5254 25.0733 35.5254V36.8553C27.034 36.8553 28.8036 36.4303 30.3612 35.5648L29.6325 34.422ZM60.9667 34.5146L60.5671 35.0647L60.5728 35.0688L60.5799 35.0727L60.9667 34.5146ZM56.7615 29.9184L56.1182 30.2039L56.1202 30.2078L56.7615 29.9184ZM56.9153 16.9435L57.544 17.2564L57.5461 17.2523L56.9153 16.9435ZM61.6334 12.3472L61.9924 12.9216L62.0002 12.9174L61.6334 12.3472ZM76.0961 12.2993L75.7286 12.8686L75.7329 12.8712L76.0961 12.2993ZM80.7119 16.8477L80.0794 17.153L80.0836 17.1606L80.7119 16.8477ZM82.3531 35.6158V36.2808H83.0654V35.6158H82.3531ZM77.5834 35.6158H76.8711V36.2808H77.5834V35.6158ZM77.5834 30.6365H78.2957V29.9716H77.5834V30.6365ZM77.4809 30.6365V29.9716H77.0549L76.8533 30.3225L77.4809 30.6365ZM75.3781 33.2698L74.8653 32.8086L75.3781 33.2698ZM72.0958 35.3764L71.8052 34.7694L71.7988 34.7722L72.0958 35.3764ZM73.3267 31.2111L72.9427 30.6512L72.9356 30.6555L73.3267 31.2111ZM76.4039 27.9554L75.7699 27.6525L75.767 27.658L75.7642 27.6636L76.4039 27.9554ZM76.4551 18.7628L75.8126 19.0487L75.8155 19.0545L75.8183 19.0602L76.4551 18.7628ZM73.4805 15.6029L73.0895 16.1584L73.0952 16.1618L73.1002 16.1651L73.4805 15.6029ZM64.1464 15.6029L63.7625 15.043L63.7554 15.0474L64.1464 15.6029ZM61.1205 18.8586L60.4809 18.5668L60.478 18.5724L60.4752 18.5781L61.1205 18.8586ZM61.1205 28.0032L60.4752 28.2837L60.478 28.2891L61.1205 28.0032ZM64.0951 31.2111L63.7041 31.7666L64.0951 31.2111ZM67.5826 35.5254C65.133 35.5254 63.0673 34.993 61.3542 33.9566L60.5799 35.0727C62.5594 36.2706 64.9043 36.8553 67.5826 36.8553V35.5254ZM61.367 33.9646C59.6631 32.8838 58.3425 31.4433 57.403 29.629L56.1202 30.2078C57.1636 32.2236 58.6467 33.8473 60.5671 35.0647L61.367 33.9646ZM57.4051 29.6328C56.4635 27.7845 55.9865 25.7131 55.9865 23.407H54.5618C54.5618 25.8886 55.0764 28.1582 56.1182 30.2039L57.4051 29.6328ZM55.9865 23.407C55.9865 21.1108 56.5103 19.0656 57.544 17.2564L56.2868 16.6305C55.1322 18.6516 54.5618 20.9154 54.5618 23.407H55.9865ZM57.5461 17.2523C58.5776 15.4169 60.0556 13.9764 61.9924 12.9216L61.2751 11.7728C59.109 12.9523 57.4414 14.576 56.2846 16.6345L57.5461 17.2523ZM62.0002 12.9174C63.9206 11.8417 66.2499 11.2885 69.0186 11.2885V9.9586C66.044 9.9586 63.4498 10.5545 61.2673 11.777L62.0002 12.9174ZM69.0186 11.2885C71.6485 11.2885 73.8751 11.8246 75.7286 12.8686L76.4644 11.7299C74.3517 10.5397 71.86 9.9586 69.0186 9.9586V11.2885ZM75.7329 12.8712C77.6376 13.9258 79.0814 15.3503 80.0794 17.1529L81.3452 16.5425C80.2225 14.5148 78.5899 12.9071 76.4601 11.7274L75.7329 12.8712ZM80.0836 17.1606C81.1179 18.9711 81.6408 21.0006 81.6408 23.2633H83.0654C83.0654 20.8021 82.4948 18.5545 81.3409 16.5348L80.0836 17.1606ZM81.6408 23.2633V35.6158H83.0654V23.2633H81.6408ZM82.3531 34.9509H77.5834V36.2808H82.3531V34.9509ZM78.2957 35.6158V30.6365H76.8711V35.6158H78.2957ZM77.5834 29.9716H77.4809V31.3015H77.5834V29.9716ZM76.8533 30.3225C76.3761 31.1538 75.7172 31.983 74.8653 32.8086L75.8917 33.731C76.8177 32.833 77.5606 31.9067 78.1091 30.9505L76.8533 30.3225ZM74.8653 32.8086C74.0461 33.6025 73.0303 34.2578 71.8052 34.7695L72.3871 35.9834C73.7605 35.4098 74.9322 34.6607 75.8917 33.731L74.8653 32.8086ZM71.7988 34.7722C70.6477 35.2661 69.2494 35.5254 67.5826 35.5254V36.8553C69.404 36.8553 71.0145 36.5721 72.3935 35.9807L71.7988 34.7722ZM68.8135 33.073C70.6484 33.073 72.2917 32.643 73.7184 31.7666L72.9356 30.6555C71.7639 31.375 70.3984 31.743 68.8135 31.743V33.073ZM73.7113 31.7709C75.1587 30.9049 76.2707 29.7254 77.0442 28.2472L75.7642 27.6636C75.1018 28.9303 74.1622 29.9213 72.9427 30.6512L73.7113 31.7709ZM77.0385 28.2583C77.8477 26.7814 78.2445 25.1276 78.2445 23.3112H76.8198C76.8198 24.9421 76.4651 26.3843 75.7699 27.6525L77.0385 28.2583ZM78.2445 23.3112C78.2445 21.5297 77.8662 19.9096 77.0927 18.4654L75.8183 19.0602C76.4808 20.2972 76.8198 21.7094 76.8198 23.3112H78.2445ZM77.0984 18.4769C76.359 17.0271 75.2784 15.8762 73.8609 15.0406L73.1002 16.1651C74.2819 16.8616 75.1844 17.8174 75.8126 19.0487L77.0984 18.4769ZM73.8723 15.0474C72.4434 14.1695 70.7816 13.741 68.916 13.741V15.0709C70.5387 15.0709 71.9199 15.4403 73.0895 16.1584L73.8723 15.0474ZM68.916 13.741C66.9565 13.741 65.2284 14.1657 63.7625 15.043L64.5311 16.1627C65.732 15.4441 67.183 15.0709 68.916 15.0709V13.741ZM63.7554 15.0474C62.3436 15.9143 61.2516 17.0929 60.4809 18.5668L61.7609 19.1504C62.4262 17.8792 63.3515 16.8874 64.5382 16.1584L63.7554 15.0474ZM60.4752 18.5781C59.7422 20.0483 59.3825 21.6777 59.3825 23.4548H60.8071C60.8071 21.8486 61.1312 20.4138 61.7666 19.139L60.4752 18.5781ZM59.3825 23.4548C59.3825 25.2021 59.7436 26.8151 60.4752 28.2837L61.7666 27.7228C61.1305 26.4463 60.8071 25.0272 60.8071 23.4548H59.3825ZM60.478 28.2891C61.216 29.7368 62.2937 30.9003 63.7041 31.7666L64.4869 30.6555C63.2988 29.9259 62.3934 28.9509 61.7637 27.7174L60.478 28.2891ZM63.7041 31.7666C65.1401 32.6484 66.8546 33.073 68.8135 33.073V31.743C67.0804 31.743 65.6494 31.3697 64.4869 30.6555L63.7041 31.7666ZM89.8658 35.6158H89.1535V36.2808H89.8658V35.6158ZM89.8658 0.664971V0H89.1535V0.664971H89.8658ZM94.5842 0.664971H95.2965V0H94.5842V0.664971ZM94.5842 35.6158V36.2808H95.2965V35.6158H94.5842ZM90.5781 35.6158V0.664971H89.1535V35.6158H90.5781ZM89.8658 1.32994H94.5842V0H89.8658V1.32994ZM93.8718 0.664971V35.6158H95.2965V0.664971H93.8718ZM94.5842 34.9509H89.8658V36.2808H94.5842V34.9509ZM111.985 45.335H111.273V46H111.985V45.335ZM111.985 35.9988H112.697V35.4221L112.086 35.3406L111.985 35.9988ZM106.857 34.1795L106.448 34.7249L106.455 34.7289L106.857 34.1795ZM102.087 11.1981V10.5331H101.375V11.1981H102.087ZM106.857 11.1981H107.569V10.5331H106.857V11.1981ZM107.882 29.1044L107.268 29.4416L107.275 29.4516L107.281 29.4615L107.882 29.1044ZM110.652 31.5462L110.311 32.13L110.652 31.5462ZM117.986 31.5462L117.652 30.9584L117.644 30.9624L117.986 31.5462ZM120.755 29.1044L120.149 28.755L120.145 28.7598L120.755 29.1044ZM121.832 11.1981V10.5331H121.12V11.1981H121.832ZM126.551 11.1981H127.263V10.5331H126.551V11.1981ZM125.268 30.4929L124.639 30.1806L124.637 30.1855L124.634 30.1905L125.268 30.4929ZM121.781 34.1795L122.179 34.7308L122.182 34.7289L121.781 34.1795ZM116.704 35.9988L116.59 35.3423L115.991 35.4322V35.9988H116.704ZM116.704 45.335V46H117.416V45.335H116.704ZM112.697 45.335V35.9988H111.273V45.335H112.697ZM112.086 35.3406C110.272 35.0987 108.667 34.5269 107.258 33.6301L106.455 34.7289C108.055 35.7473 109.868 36.3883 111.884 36.6571L112.086 35.3406ZM107.264 33.6341C105.888 32.7378 104.8 31.5893 103.997 30.1806L102.74 30.8052C103.647 32.3968 104.884 33.7061 106.448 34.7248L107.264 33.6341ZM103.997 30.1806C103.205 28.7898 102.799 27.1762 102.799 25.3221H101.375C101.375 27.362 101.823 29.1957 102.74 30.8052L103.997 30.1806ZM102.799 25.3221V11.1981H101.375V25.3221H102.799ZM102.087 11.8631H106.857V10.5331H102.087V11.8631ZM106.144 11.1981V25.2742H107.569V11.1981H106.144ZM106.144 25.2742C106.144 26.8411 106.51 28.2382 107.268 29.4416L108.496 28.7673C107.887 27.8002 107.569 26.6438 107.569 25.2742H106.144ZM107.281 29.4615C108.061 30.6057 109.072 31.4994 110.311 32.13L110.992 30.9624C109.974 30.4439 109.139 29.7098 108.483 28.7474L107.281 29.4615ZM110.311 32.13C111.544 32.7584 112.876 33.073 114.293 33.073V31.743C113.111 31.743 112.015 31.4831 110.992 30.9624L110.311 32.13ZM114.293 33.073C115.741 33.073 117.09 32.7598 118.326 32.13L117.644 30.9624C116.624 31.4816 115.512 31.743 114.293 31.743V33.073ZM118.318 32.1339C119.596 31.5029 120.613 30.6049 121.364 29.4491L120.145 28.7598C119.529 29.7106 118.7 30.4404 117.652 30.9585L118.318 32.1339ZM121.361 29.4539C122.158 28.2485 122.544 26.8469 122.544 25.2742H121.12C121.12 26.6381 120.787 27.7899 120.149 28.755L121.361 29.4539ZM122.544 25.2742V11.1981H121.12V25.2742H122.544ZM121.832 11.8631H126.551V10.5331H121.832V11.8631ZM125.838 11.1981V25.3221H127.263V11.1981H125.838ZM125.838 25.3221C125.838 27.1762 125.431 28.7898 124.639 30.1806L125.897 30.8052C126.814 29.1957 127.263 27.362 127.263 25.3221H125.838ZM124.634 30.1905C123.868 31.5904 122.786 32.7347 121.379 33.6301L122.182 34.7289C123.784 33.7092 125.027 32.3957 125.902 30.7953L124.634 30.1905ZM121.382 33.6282C120.006 34.495 118.412 35.0689 116.59 35.3423L116.816 36.6554C118.823 36.3543 120.615 35.7153 122.179 34.7308L121.382 33.6282ZM115.991 35.9988V45.335H117.416V35.9988H115.991ZM116.704 44.6701H111.985V46H116.704V44.6701ZM138.297 34.5146L137.897 35.0647L137.903 35.0688L137.91 35.0727L138.297 34.5146ZM134.092 29.9184L133.449 30.2039L133.451 30.2078L134.092 29.9184ZM134.246 16.9435L134.874 17.2564L134.876 17.2523L134.246 16.9435ZM138.964 12.3472L139.323 12.9216L139.33 12.9174L138.964 12.3472ZM153.427 12.2993L153.058 12.8686L153.063 12.8712L153.427 12.2993ZM158.042 16.8477L157.409 17.153L157.414 17.1606L158.042 16.8477ZM159.684 35.6158V36.2808H160.396V35.6158H159.684ZM154.914 35.6158H154.202V36.2808H154.914V35.6158ZM154.914 30.6365H155.626V29.9716H154.914V30.6365ZM154.811 30.6365V29.9716H154.385L154.183 30.3225L154.811 30.6365ZM152.709 33.2698L152.196 32.8086L152.709 33.2698ZM149.426 35.3764L149.136 34.7694L149.129 34.7722L149.426 35.3764ZM150.657 31.2111L150.273 30.6512L150.265 30.6555L150.657 31.2111ZM153.734 27.9554L153.1 27.6525L153.097 27.658L153.094 27.6636L153.734 27.9554ZM153.786 18.7628L153.142 19.0487L153.145 19.0545L153.149 19.0602L153.786 18.7628ZM150.811 15.6029L150.419 16.1584L150.425 16.1618L150.431 16.1651L150.811 15.6029ZM141.477 15.6029L141.092 15.043L141.085 15.0474L141.477 15.6029ZM138.451 18.8586L137.811 18.5668L137.808 18.5724L137.805 18.5781L138.451 18.8586ZM138.451 28.0032L137.805 28.2837L137.808 28.2891L138.451 28.0032ZM141.426 31.2111L141.034 31.7666L141.426 31.2111ZM144.913 35.5254C142.463 35.5254 140.398 34.993 138.685 33.9566L137.91 35.0727C139.889 36.2706 142.235 36.8553 144.913 36.8553V35.5254ZM138.698 33.9646C136.993 32.8838 135.672 31.4433 134.733 29.629L133.451 30.2078C134.494 32.2236 135.977 33.8473 137.897 35.0647L138.698 33.9646ZM134.735 29.6328C133.794 27.7845 133.317 25.7131 133.317 23.407H131.892C131.892 25.8886 132.406 28.1582 133.449 30.2039L134.735 29.6328ZM133.317 23.407C133.317 21.1108 133.84 19.0656 134.874 17.2564L133.617 16.6305C132.463 18.6516 131.892 20.9154 131.892 23.407H133.317ZM134.876 17.2523C135.907 15.4169 137.386 13.9764 139.323 12.9216L138.605 11.7728C136.439 12.9523 134.771 14.576 133.615 16.6345L134.876 17.2523ZM139.33 12.9174C141.25 11.8417 143.58 11.2885 146.349 11.2885V9.9586C143.374 9.9586 140.78 10.5545 138.597 11.777L139.33 12.9174ZM146.349 11.2885C148.978 11.2885 151.205 11.8246 153.058 12.8686L153.795 11.7299C151.682 10.5397 149.191 9.9586 146.349 9.9586V11.2885ZM153.063 12.8712C154.967 13.9258 156.412 15.3503 157.41 17.1529L158.675 16.5425C157.553 14.5148 155.921 12.9071 153.79 11.7274L153.063 12.8712ZM157.414 17.1606C158.449 18.9711 158.971 21.0006 158.971 23.2633H160.396C160.396 20.8021 159.825 18.5545 158.671 16.5348L157.414 17.1606ZM158.971 23.2633V35.6158H160.396V23.2633H158.971ZM159.684 34.9509H154.914V36.2808H159.684V34.9509ZM155.626 35.6158V30.6365H154.202V35.6158H155.626ZM154.914 29.9716H154.811V31.3015H154.914V29.9716ZM154.183 30.3225C153.707 31.1538 153.047 31.983 152.196 32.8086L153.222 33.731C154.148 32.833 154.891 31.9067 155.439 30.9505L154.183 30.3225ZM152.196 32.8086C151.377 33.6025 150.36 34.2578 149.136 34.7695L149.717 35.9834C151.09 35.4098 152.263 34.6607 153.222 33.731L152.196 32.8086ZM149.129 34.7722C147.978 35.2661 146.579 35.5254 144.913 35.5254V36.8553C146.735 36.8553 148.345 36.5721 149.723 35.9807L149.129 34.7722ZM146.144 33.073C147.978 33.073 149.622 32.643 151.049 31.7666L150.265 30.6555C149.094 31.375 147.729 31.743 146.144 31.743V33.073ZM151.042 31.7709C152.489 30.9049 153.601 29.7254 154.375 28.2472L153.094 27.6636C152.432 28.9303 151.493 29.9213 150.273 30.6512L151.042 31.7709ZM154.368 28.2583C155.178 26.7814 155.575 25.1276 155.575 23.3112H154.15C154.15 24.9421 153.795 26.3843 153.1 27.6525L154.368 28.2583ZM155.575 23.3112C155.575 21.5297 155.196 19.9096 154.423 18.4654L153.149 19.0602C153.811 20.2972 154.15 21.7094 154.15 23.3112H155.575ZM154.429 18.4769C153.69 17.0271 152.608 15.8762 151.191 15.0406L150.431 16.1651C151.612 16.8616 152.514 17.8174 153.142 19.0487L154.429 18.4769ZM151.203 15.0474C149.773 14.1695 148.112 13.741 146.247 13.741V15.0709C147.869 15.0709 149.25 15.4403 150.419 16.1584L151.203 15.0474ZM146.247 13.741C144.287 13.741 142.559 14.1657 141.092 15.043L141.862 16.1627C143.062 15.4441 144.514 15.0709 146.247 15.0709V13.741ZM141.085 15.0474C139.674 15.9143 138.582 17.0929 137.811 18.5668L139.091 19.1504C139.756 17.8792 140.681 16.8874 141.869 16.1584L141.085 15.0474ZM137.805 18.5781C137.073 20.0483 136.713 21.6777 136.713 23.4548H138.138C138.138 21.8486 138.462 20.4138 139.097 19.139L137.805 18.5781ZM136.713 23.4548C136.713 25.2021 137.073 26.8151 137.805 28.2837L139.097 27.7228C138.461 26.4463 138.138 25.0272 138.138 23.4548H136.713ZM137.808 28.2891C138.547 29.7368 139.624 30.9003 141.034 31.7666L141.817 30.6555C140.629 29.9259 139.723 28.9509 139.094 27.7174L137.808 28.2891ZM141.034 31.7666C142.47 32.6484 144.185 33.073 146.144 33.073V31.743C144.41 31.743 142.98 31.3697 141.817 30.6555L141.034 31.7666ZM170.633 33.7486L170.123 34.2127L170.129 34.2188L170.633 33.7486ZM168.684 14.9805H169.396V14.3155H168.684V14.9805ZM164.171 14.9805H163.458V15.6454H164.171V14.9805ZM164.171 11.1981V10.5331H163.458V11.1981H164.171ZM168.684 11.1981V11.8631H169.396V11.1981H168.684ZM168.684 5.06974V4.40477H167.971V5.06974H168.684ZM173.402 5.06974H174.114V4.40477H173.402V5.06974ZM173.402 11.1981H172.69V11.8631H173.402V11.1981ZM182.377 11.1981H183.089V10.5331H182.377V11.1981ZM182.377 14.9805V15.6454H183.089V14.9805H182.377ZM173.402 14.9805V14.3155H172.69V14.9805H173.402ZM174.325 30.9238L173.796 31.3687L173.808 31.3816L173.822 31.394L174.325 30.9238ZM182.275 31.8335H182.987V31.1685H182.275V31.8335ZM182.275 35.6158V36.2808H182.987V35.6158H182.275ZM176.12 34.9509C173.937 34.9509 172.307 34.3707 171.136 33.2784L170.129 34.2188C171.626 35.6161 173.653 36.2808 176.12 36.2808V34.9509ZM171.143 33.2845C170.001 32.1912 169.396 30.6809 169.396 28.6735H167.971C167.971 30.9432 168.665 32.8164 170.123 34.2127L171.143 33.2845ZM169.396 28.6735V14.9805H167.971V28.6735H169.396ZM168.684 14.3155H164.171V15.6454H168.684V14.3155ZM164.883 14.9805V11.1981H163.458V14.9805H164.883ZM164.171 11.8631H168.684V10.5331H164.171V11.8631ZM169.396 11.1981V5.06974H167.971V11.1981H169.396ZM168.684 5.73471H173.402V4.40477H168.684V5.73471ZM172.69 5.06974V11.1981H174.114V5.06974H172.69ZM173.402 11.8631H182.377V10.5331H173.402V11.8631ZM181.665 11.1981V14.9805H183.089V11.1981H181.665ZM182.377 14.3155H173.402V15.6454H182.377V14.3155ZM172.69 14.9805V28.3863H174.114V14.9805H172.69ZM172.69 28.3863C172.69 29.5649 173.037 30.582 173.796 31.3687L174.854 30.4789C174.382 29.9888 174.114 29.3142 174.114 28.3863H172.69ZM173.822 31.394C174.634 32.1525 175.721 32.4984 176.992 32.4984V31.1685C176.007 31.1685 175.315 30.908 174.829 30.4536L173.822 31.394ZM176.992 32.4984H182.275V31.1685H176.992V32.4984ZM181.562 31.8335V35.6158H182.987V31.8335H181.562ZM182.275 34.9509H176.12V36.2808H182.275V34.9509ZM188.081 35.6158H187.369V36.2808H188.081V35.6158ZM188.081 0.664971V0H187.369V0.664971H188.081ZM192.8 0.664971H193.512V0H192.8V0.664971ZM192.8 21.444H192.087V22.1089H192.8V21.444ZM199.98 21.444V22.1089H200.374L200.584 21.7969L199.98 21.444ZM206.852 11.1981V10.5331H206.458L206.249 10.8452L206.852 11.1981ZM212.083 11.1981L212.685 11.5549L213.38 10.5331H212.083V11.1981ZM204.647 22.1143L204.046 21.7574L203.537 22.5047L204.447 22.7526L204.647 22.1143ZM210.391 25.8966L209.805 26.2741L209.809 26.2796L209.812 26.2849L210.391 25.8966ZM212.494 35.6158V36.2808H213.206V35.6158H212.494ZM207.724 35.6158H207.012V36.2808H207.724V35.6158ZM206.75 28.6735L206.124 28.9919L206.128 28.9987L206.133 29.0054L206.75 28.6735ZM204.134 26.1839L203.765 26.7526L203.771 26.7564L203.779 26.7601L204.134 26.1839ZM192.8 25.2263V24.5614H192.087V25.2263H192.8ZM192.8 35.6158V36.2808H193.512V35.6158H192.8ZM188.794 35.6158V0.664971H187.369V35.6158H188.794ZM188.081 1.32994H192.8V0H188.081V1.32994ZM192.087 0.664971V21.444H193.512V0.664971H192.087ZM192.8 22.1089H199.98V20.779H192.8V22.1089ZM200.584 21.7969L207.456 11.551L206.249 10.8452L199.376 21.0911L200.584 21.7969ZM206.852 11.8631H212.083V10.5331H206.852V11.8631ZM211.482 10.8413L204.046 21.7574L205.248 22.4711L212.685 11.5549L211.482 10.8413ZM204.447 22.7526C206.763 23.3831 208.536 24.5572 209.805 26.2741L210.977 25.5191C209.51 23.5334 207.455 22.186 204.846 21.4759L204.447 22.7526ZM209.812 26.2849C211.12 27.9817 211.781 29.9658 211.781 32.2644H213.206C213.206 29.7114 212.466 27.4503 210.969 25.5083L209.812 26.2849ZM211.781 32.2644V35.6158H213.206V32.2644H211.781ZM212.494 34.9509H207.724V36.2808H212.494V34.9509ZM208.436 35.6158V32.2644H207.012V35.6158H208.436ZM208.436 32.2644C208.436 30.8197 208.085 29.5061 207.367 28.3417L206.133 29.0054C206.713 29.9475 207.012 31.0279 207.012 32.2644H208.436ZM207.375 28.3551C206.696 27.1928 205.73 26.2743 204.489 25.6076L203.779 26.7601C204.795 27.3064 205.573 28.0476 206.124 28.9919L207.375 28.3551ZM204.503 25.6152C203.251 24.9068 201.821 24.5614 200.236 24.5614V25.8913C201.592 25.8913 202.761 26.1842 203.765 26.7526L204.503 25.6152ZM200.236 24.5614H192.8V25.8913H200.236V24.5614ZM192.087 25.2263V35.6158H193.512V25.2263H192.087ZM192.8 34.9509H188.081V36.2808H192.8V34.9509ZM224.414 34.5146L224.047 35.0848L224.053 35.0882L224.059 35.0914L224.414 34.5146ZM219.541 29.9184L218.919 30.2421L218.923 30.2478L218.926 30.2534L219.541 29.9184ZM219.541 16.9435L218.924 16.6125L218.922 16.6156L219.541 16.9435ZM224.414 12.3472L224.772 12.9216L224.776 12.9198L224.414 12.3472ZM238.62 12.3472L238.254 12.9174L238.259 12.9207L238.266 12.924L238.62 12.3472ZM243.493 16.9435L242.87 17.2672L242.874 17.2729L242.877 17.2785L243.493 16.9435ZM243.493 29.9184L242.874 29.5874L242.872 29.5905L243.493 29.9184ZM238.62 34.5146L238.979 35.089L238.982 35.0873L238.62 34.5146ZM236.261 31.2111L235.877 30.6512L236.261 31.2111ZM239.39 28.0032L240.02 28.3118L240.024 28.3061L239.39 28.0032ZM239.39 18.8586L238.755 19.1615L238.759 19.1671L239.39 18.8586ZM226.824 15.6029L226.446 15.0389L226.44 15.043L226.824 15.6029ZM223.695 18.8586L224.327 19.1671L224.33 19.1615L223.695 18.8586ZM223.695 28.0032L223.061 28.3061L223.065 28.3118L223.695 28.0032ZM226.824 31.2111L226.44 31.7709L226.446 31.775L226.824 31.2111ZM231.543 35.5254C228.986 35.5254 226.735 34.9911 224.768 33.9378L224.059 35.0914C226.264 36.2725 228.765 36.8553 231.543 36.8553V35.5254ZM224.78 33.9444C222.831 32.8525 221.293 31.401 220.157 29.5833L218.926 30.2534C220.184 32.266 221.894 33.8787 224.047 35.0848L224.78 33.9444ZM220.164 29.5946C219.065 27.7538 218.51 25.6962 218.51 23.407H217.085C217.085 25.9055 217.694 28.1888 218.919 30.2421L220.164 29.5946ZM218.51 23.407C218.51 21.1176 219.065 19.0778 220.162 17.2713L218.922 16.6156C217.693 18.6393 217.085 20.9085 217.085 23.407H218.51ZM220.16 17.2744C221.295 15.4269 222.83 13.9793 224.772 12.9216L224.055 11.7728C221.895 12.9493 220.182 14.5659 218.924 16.6125L220.16 17.2744ZM224.776 12.9198C226.741 11.8372 228.99 11.2885 231.543 11.2885V9.9586C228.761 9.9586 226.258 10.559 224.052 11.7745L224.776 12.9198ZM231.543 11.2885C234.096 11.2885 236.325 11.8372 238.254 12.9174L238.987 11.777C236.812 10.559 234.323 9.9586 231.543 9.9586V11.2885ZM238.266 12.924C240.24 13.9815 241.771 15.4264 242.87 17.2672L244.115 16.6197C242.889 14.5664 241.171 12.9472 238.975 11.7704L238.266 12.924ZM242.877 17.2785C244.005 19.0839 244.575 21.1211 244.575 23.407H246C246 20.905 245.373 18.6333 244.107 16.6084L242.877 17.2785ZM244.575 23.407C244.575 25.6927 244.005 27.7478 242.874 29.5874L244.11 30.2493C245.373 28.1948 246 25.909 246 23.407H244.575ZM242.872 29.5905C241.773 31.4016 240.24 32.8503 238.258 33.942L238.982 35.0873C241.172 33.8808 242.886 32.2654 244.112 30.2462L242.872 29.5905ZM238.261 33.9402C236.332 34.991 234.099 35.5254 231.543 35.5254V36.8553C234.32 36.8553 236.805 36.2726 238.979 35.089L238.261 33.9402ZM231.543 33.073C233.471 33.073 235.181 32.647 236.645 31.7709L235.877 30.6512C234.674 31.3711 233.238 31.743 231.543 31.743V33.073ZM236.645 31.7709C238.086 30.9091 239.212 29.7522 240.02 28.3118L238.759 27.6947C238.062 28.9355 237.103 29.9171 235.877 30.6512L236.645 31.7709ZM240.024 28.3061C240.832 26.831 241.23 25.1935 241.23 23.407H239.806C239.806 25.0038 239.451 26.4305 238.755 27.7003L240.024 28.3061ZM241.23 23.407C241.23 21.6207 240.832 19.9965 240.02 18.55L238.759 19.1671C239.451 20.4017 239.806 21.8099 239.806 23.407H241.23ZM240.024 18.5557C239.217 17.0831 238.09 15.9073 236.645 15.043L235.877 16.1627C237.099 16.8944 238.058 17.889 238.755 19.1615L240.024 18.5557ZM236.645 15.043C235.181 14.1669 233.471 13.741 231.543 13.741V15.0709C233.238 15.0709 234.674 15.4429 235.877 16.1627L236.645 15.043ZM231.543 13.741C229.645 13.741 227.939 14.1683 226.446 15.039L227.201 16.1668C228.445 15.4415 229.884 15.0709 231.543 15.0709V13.741ZM226.44 15.043C224.995 15.9073 223.868 17.0831 223.061 18.5557L224.33 19.1615C225.027 17.889 225.986 16.8944 227.209 16.1627L226.44 15.043ZM223.065 18.55C222.253 19.9965 221.856 21.6207 221.856 23.407H223.28C223.28 21.8099 223.634 20.4017 224.327 19.1671L223.065 18.55ZM221.856 23.407C221.856 25.1935 222.253 26.831 223.061 28.3061L224.33 27.7003C223.634 26.4305 223.28 25.0038 223.28 23.407H221.856ZM223.065 28.3118C223.873 29.7522 225 30.9091 226.44 31.7709L227.209 30.6512C225.982 29.9171 225.023 28.9355 224.327 27.6947L223.065 28.3118ZM226.446 31.775C227.939 32.6456 229.645 33.073 231.543 33.073V31.743C229.884 31.743 228.445 31.3724 227.201 30.6472L226.446 31.775Z" fill="white"/>
</svg>
