<svg width="52" height="52" viewBox="0 0 52 52" fill="none" xmlns="http://www.w3.org/2000/svg">
<circle cx="26" cy="26" r="26" fill="#AC9F9F"/>
<path d="M29.8978 32.5393V29.0375C32.7141 27.4077 34.1222 23.7077 34.1222 17.9375C34.1222 15.647 33.3301 13.9182 31.746 12.7509C30.1618 11.5836 28.1376 11 25.6733 11C23.2091 11 21.1849 11.5836 19.6007 12.7509C18.0165 13.9182 17.2244 15.647 17.2244 17.9375C17.2244 23.4435 18.6326 27.0994 21.4489 28.9054V32.5393C18.9846 33.0238 16.9714 33.8387 15.4093 34.9839C13.8471 36.1292 13.044 37.4065 13 38.8161C13 40.0054 17.2244 40.6 25.6733 40.6C34.1222 40.6 38.3467 40.0054 38.3467 38.8161C38.3027 37.4065 37.4996 36.1292 35.9374 34.9839C34.3753 33.8387 32.362 33.0238 29.8978 32.5393Z" fill="#ECECEC"/>
</svg>
