<svg width="246" height="46" viewBox="0 0 246 46" fill="none" xmlns="http://www.w3.org/2000/svg">
<path d="M24.5029 36.4667C22.6459 36.4667 20.9779 36.0604 19.4992 35.2478C18.0204 34.4353 16.8511 33.3302 15.9914 31.9326C15.166 30.5026 14.7533 28.845 14.7533 26.9598V9.99383C14.7533 8.66125 14.2547 7.53993 13.2574 6.62987C12.2944 5.71982 11.1424 5.26479 9.80117 5.26479C8.45996 5.26479 7.30789 5.71982 6.34497 6.62987C5.41643 7.53993 4.95217 8.66125 4.95217 9.99383V35.8816H0V10.6276C0 8.84001 0.41268 7.23116 1.23804 5.80107C2.0634 4.37099 3.21547 3.24967 4.69424 2.43712C6.17302 1.59207 7.87532 1.16955 9.80117 1.16955C11.7614 1.16955 13.4809 1.59207 14.9597 2.43712C16.4384 3.24967 17.5905 4.37099 18.4159 5.80107C19.2412 7.23116 19.6539 8.84001 19.6539 10.6276V27.5936C19.6539 28.9587 20.1354 30.0963 21.0983 31.0063C22.0612 31.8839 23.1961 32.3227 24.5029 32.3227C25.8097 32.3227 26.9274 31.8839 27.856 31.0063C28.7845 30.0963 29.2487 28.9587 29.2487 27.5936V10.6276C29.2487 8.84001 29.6614 7.23116 30.4868 5.80107C31.3465 4.37099 32.5158 3.24967 33.9946 2.43712C35.4734 1.59207 37.1929 1.16955 39.1531 1.16955C41.0789 1.16955 42.7812 1.59207 44.26 2.43712C45.7388 3.24967 46.8909 4.37099 47.7162 5.80107C48.5416 7.23116 48.9543 8.84001 48.9543 10.6276V35.8816H44.0021V9.99383C44.0021 8.66125 43.5206 7.53993 42.5577 6.62987C41.6292 5.71982 40.4943 5.26479 39.1531 5.26479C37.7775 5.26479 36.6082 5.71982 35.6453 6.62987C34.6824 7.53993 34.2009 8.66125 34.2009 9.99383V26.9598C34.2009 28.845 33.771 30.5026 32.9113 31.9326C32.0859 33.3302 30.9339 34.4353 29.4551 35.2478C28.0107 36.0604 26.36 36.4667 24.5029 36.4667ZM67.2598 36.4667C64.6805 36.4667 62.4624 35.8979 60.6053 34.7603C58.7826 33.5902 57.3727 32.0301 56.3756 30.08C55.3783 28.0974 54.8797 25.8873 54.8797 23.4496C54.8797 21.012 55.4299 18.8181 56.5304 16.868C57.6306 14.8854 59.2125 13.3253 61.2759 12.1877C63.3393 11.0176 65.8154 10.4326 68.7042 10.4326C71.4554 10.4326 73.8283 11.0014 75.8229 12.139C77.8519 13.2765 79.3995 14.8204 80.4656 16.7705C81.5661 18.7206 82.1163 20.8982 82.1163 23.3034V35.8816H77.3189V30.8113H77.2157C76.6999 31.7214 75.9949 32.6152 75.1007 33.4927C74.2066 34.3703 73.1061 35.0853 71.7993 35.6379C70.5269 36.1904 69.0137 36.4667 67.2598 36.4667ZM68.4978 32.6152C70.2174 32.6152 71.7305 32.2089 73.0373 31.3964C74.3785 30.5838 75.4102 29.4787 76.1324 28.0812C76.889 26.6836 77.2673 25.1072 77.2673 23.3521C77.2673 21.6295 76.9062 20.0857 76.184 18.7206C75.4962 17.3555 74.4989 16.283 73.1921 15.5029C71.8853 14.6904 70.3549 14.2841 68.601 14.2841C66.7439 14.2841 65.1448 14.6904 63.8036 15.5029C62.4968 16.3155 61.4823 17.4205 60.7601 18.8181C60.0723 20.2157 59.7284 21.7758 59.7284 23.4984C59.7284 25.1885 60.0723 26.7323 60.7601 28.1299C61.4479 29.495 62.4452 30.5838 63.752 31.3964C65.0588 32.2089 66.6408 32.6152 68.4978 32.6152ZM89.6728 35.8816V0.291992H94.4186V35.8816H89.6728ZM111.921 45.7785V36.2717C109.995 36.0116 108.276 35.3941 106.763 34.419C105.284 33.444 104.114 32.1927 103.255 30.6651C102.395 29.1375 101.965 27.3824 101.965 25.3997V11.0176H106.763V25.351C106.763 26.8461 107.106 28.1462 107.794 29.2512C108.516 30.3238 109.445 31.1526 110.58 31.7376C111.715 32.3227 112.936 32.6152 114.242 32.6152C115.584 32.6152 116.822 32.3227 117.956 31.7376C119.126 31.1526 120.054 30.3238 120.742 29.2512C121.464 28.1462 121.825 26.8461 121.825 25.351V11.0176H126.571V25.3997C126.571 27.3824 126.141 29.1375 125.282 30.6651C124.456 32.1927 123.287 33.444 121.774 34.419C120.295 35.3616 118.593 35.9791 116.667 36.2717V45.7785H111.921ZM145.041 36.4667C142.462 36.4667 140.243 35.8979 138.386 34.7603C136.564 33.5902 135.154 32.0301 134.156 30.08C133.159 28.0974 132.66 25.8873 132.66 23.4496C132.66 21.012 133.211 18.8181 134.311 16.868C135.412 14.8854 136.994 13.3253 139.057 12.1877C141.12 11.0176 143.596 10.4326 146.485 10.4326C149.236 10.4326 151.609 11.0014 153.604 12.139C155.633 13.2765 157.181 14.8204 158.247 16.7705C159.347 18.7206 159.897 20.8982 159.897 23.3034V35.8816H155.1V30.8113H154.997C154.481 31.7214 153.776 32.6152 152.882 33.4927C151.988 34.3703 150.887 35.0853 149.58 35.6379C148.308 36.1904 146.795 36.4667 145.041 36.4667ZM146.279 32.6152C147.998 32.6152 149.512 32.2089 150.818 31.3964C152.16 30.5838 153.191 29.4787 153.913 28.0812C154.67 26.6836 155.048 25.1072 155.048 23.3521C155.048 21.6295 154.687 20.0857 153.965 18.7206C153.277 17.3555 152.28 16.283 150.973 15.5029C149.666 14.6904 148.136 14.2841 146.382 14.2841C144.525 14.2841 142.926 14.6904 141.585 15.5029C140.278 16.3155 139.263 17.4205 138.541 18.8181C137.853 20.2157 137.509 21.7758 137.509 23.4984C137.509 25.1885 137.853 26.7323 138.541 28.1299C139.229 29.495 140.226 30.5838 141.533 31.3964C142.84 32.2089 144.422 32.6152 146.279 32.6152ZM176.43 35.8816C174.091 35.8816 172.251 35.2478 170.91 33.9803C169.603 32.7127 168.95 30.9901 168.95 28.8125V14.8691H164.41V11.0176H168.95V4.77726H173.696V11.0176H182.723V14.8691H173.696V28.5199C173.696 29.5925 174.005 30.4538 174.624 31.1038C175.278 31.7214 176.172 32.0301 177.307 32.0301H182.62V35.8816H176.43ZM188.46 35.8816V0.291992H193.206V21.4508H200.428L207.341 11.0176H212.602L205.122 22.1333C207.598 22.8158 209.524 24.0997 210.9 25.9848C212.31 27.8374 213.015 29.9988 213.015 32.4689V35.8816H208.218V32.4689C208.218 31.1038 207.891 29.885 207.237 28.8125C206.618 27.7399 205.741 26.8948 204.607 26.2773C203.472 25.6273 202.165 25.3022 200.686 25.3022H193.206V35.8816H188.46ZM232.175 36.4667C229.493 36.4667 227.103 35.8979 225.005 34.7603C222.941 33.5902 221.308 32.0301 220.104 30.08C218.935 28.0974 218.35 25.8873 218.35 23.4496C218.35 21.012 218.935 18.8181 220.104 16.868C221.308 14.8854 222.941 13.3253 225.005 12.1877C227.103 11.0176 229.493 10.4326 232.175 10.4326C234.858 10.4326 237.231 11.0176 239.294 12.1877C241.392 13.3253 243.025 14.8854 244.195 16.868C245.398 18.8181 246 21.012 246 23.4496C246 25.8873 245.398 28.0974 244.195 30.08C243.025 32.0301 241.392 33.5902 239.294 34.7603C237.231 35.8979 234.858 36.4667 232.175 36.4667ZM232.175 32.6152C233.998 32.6152 235.58 32.2089 236.921 31.3964C238.262 30.5838 239.311 29.495 240.068 28.1299C240.824 26.7323 241.203 25.1722 241.203 23.4496C241.203 21.727 240.824 20.1832 240.068 18.8181C239.311 17.4205 238.262 16.3155 236.921 15.5029C235.58 14.6904 233.998 14.2841 232.175 14.2841C230.387 14.2841 228.805 14.6904 227.429 15.5029C226.088 16.3155 225.039 17.4205 224.283 18.8181C223.526 20.1832 223.148 21.727 223.148 23.4496C223.148 25.1722 223.526 26.7323 224.283 28.1299C225.039 29.495 226.088 30.5838 227.429 31.3964C228.805 32.2089 230.387 32.6152 232.175 32.6152Z" fill="white"/>
</svg>
