<svg width="27" height="27" viewBox="0 0 27 27" fill="none" xmlns="http://www.w3.org/2000/svg">
<path d="M0.5 0.5H25C25.8284 0.5 26.5 1.17157 26.5 2V25C26.5 25.8284 25.8284 26.5 25 26.5H0.5V0.5Z" fill="#4B6EE8" stroke="black"/>
<path d="M14 19L9.66987 11.5H18.3301L14 19Z" fill="#FFF2D1"/>
<path d="M14 19L9.66987 11.5H18.3301L14 19Z" fill="#FFF2D1"/>
<path d="M14.8203 18.7837C14.4218 19.3418 13.5927 19.3424 13.1934 18.7849L8.20597 11.8205C7.73226 11.159 8.20468 10.2388 9.01829 10.2382L18.9834 10.2312C19.797 10.2307 20.2707 11.1502 19.7979 11.8123L14.8203 18.7837Z" fill="black"/>
</svg>
